<svg width="390px" height="637px" viewBox="0 0 390 637" fill="none" xmlns="http://www.w3.org/2000/svg">
<path fill-rule="evenodd" clip-rule="evenodd" d="M185.108 -85.4933C175.218 -84.4639 167.88 -82.3559 159.47 -78.1271C149.634 -73.1827 142.372 -67.4456 125.331 -51.157C103.611 -30.3947 93.5702 -23.6492 76.32 -18.227C53.4494 -11.0377 25.6262 -13.1476 5.00844 -23.6332C2.84991 -24.7307 0.84077 -25.6292 0.543007 -25.6292C0.245245 -25.6292 0.00162158 -21.3624 0.00162158 -16.1471V-6.66398L4.25752 -3.98535C10.3631 -0.143333 20.1743 4.29338 26.3009 5.98251C35.1215 8.41525 53.2389 8.86002 63.6646 6.90103C81.4732 3.55576 93.6022 -4.03833 116.631 -26.2609C133.148 -42.2007 141.078 -48.3005 152.893 -54.1585C164.804 -60.0634 175.208 -62.6631 189.618 -63.3328C203.603 -63.9824 214.25 -62.5991 226.163 -58.5842C241.635 -53.3709 250.932 -46.9522 271.879 -27.0205C289.643 -10.1182 297.562 -3.88641 307.288 0.841164C317.155 5.63669 324.575 7.38479 337.89 8.04945C355.811 8.94498 370.654 5.27387 384.142 -3.38766L389.983 -7.13873L389.991 -16.7128L390 -26.2869L384.235 -23.4643C358.652 -10.9368 325.859 -10.8498 300.268 -23.2414C290.321 -28.0589 279.847 -36.1957 262.987 -52.2045C254.933 -59.8515 245.817 -68.0163 242.727 -70.3481C226.634 -82.4939 206.679 -87.7382 185.108 -85.4933ZM181.001 -47.5699C169.7 -45.8058 157.508 -40.7194 147.881 -33.753C145.125 -31.759 137.212 -24.7297 130.295 -18.1331C108.55 2.60725 101.506 8.19437 89.5278 14.2083C78.2459 19.8714 67.1886 22.514 52.3506 23.0907C33.1776 23.8363 19.5607 21.2007 5.2651 13.9774L0.00162158 11.3178L0.00362657 21.0797L0.00563204 30.8417L4.26453 33.4834C18.9972 42.6216 29.6485 45.5971 47.6235 45.5971C63.1362 45.5971 72.0801 43.5732 84.0929 37.3424C93.3877 32.5208 100.701 26.6489 117.977 10.1374C133.165 -4.38015 140.601 -10.2421 150.563 -15.5554C174.392 -28.2628 206.594 -29.5962 232.094 -18.9317C245.132 -13.4775 254.736 -6.11024 278.715 16.8369C301.76 38.8896 317.165 45.813 342.879 45.6771C359.808 45.5871 371.161 42.3808 384.363 33.9621L390 30.3669V20.7759C390 15.5006 389.661 11.3587 389.248 11.5706C371.333 20.7529 362.539 22.8458 341.877 22.8458C327.836 22.8458 324.088 22.506 317.094 20.598C298.521 15.5316 287.317 8.35229 265.185 -12.6629C256.371 -21.0326 246.574 -29.864 243.415 -32.2878C235.416 -38.4226 223.647 -44.2096 215.184 -46.1666C206.608 -48.1506 189.274 -48.8622 181.001 -47.5699ZM174.628 -8.69293C158.654 -4.78194 146.517 3.25392 125.322 23.9483C110.242 38.6737 101.156 45.673 89.7313 51.3621C74.5064 58.9442 66.935 60.6064 47.6235 60.6064C29.4049 60.6064 21.261 58.9982 8.16853 52.8144C4.11415 50.8994 0.617197 49.3322 0.398638 49.3322C0.180078 49.3322 0.00162158 53.574 0.00162158 58.7593C0.00162158 68.0245 0.0517496 68.2215 2.91408 70.2544C8.9766 74.5572 22.7869 80.3642 30.4175 81.8174C47.3067 85.0348 66.5199 83.0908 79.9784 76.804C91.4578 71.4408 96.9418 67.3119 113.941 51.2322C131.64 34.4918 142.606 25.7703 151.769 21.1477C178.094 7.86754 212.569 8.19737 238.612 21.9793C249.91 27.9572 255.248 32.164 272.849 48.9634C290.02 65.3529 297.163 70.944 307.115 75.7865C317.271 80.73 324.552 82.4141 338.434 83.0318C356.966 83.8564 369.028 80.8779 384.09 71.7566L390 68.1775V58.3255V48.4736L385.739 50.8424C378.198 55.0342 363.488 59.323 352.427 60.5554C338.727 62.0816 324.417 60.5924 311.526 56.2996C294.76 50.7155 284.798 43.883 263.297 23.2226C241.23 2.01955 231.382 -4.4741 214.938 -8.66694C204.724 -11.2716 185.21 -11.2836 174.628 -8.69293Z" fill="#DF3E3E"/>
<path fill-rule="evenodd" clip-rule="evenodd" d="M185.107 24.2251C175.217 25.2546 167.879 27.3625 159.468 31.5913C149.632 36.5358 142.37 42.2728 125.33 58.5614C103.609 79.3237 93.5685 86.0692 76.3184 91.4914C53.4478 98.6807 25.6246 96.5708 5.00682 86.0852C2.84829 84.9878 0.839148 84.0892 0.541386 84.0892C0.243624 84.0892 0 88.356 0 93.5714V103.054L4.2559 105.733C10.3615 109.575 20.1726 114.012 26.2993 115.701C35.1199 118.134 53.2373 118.578 63.663 116.619C81.4716 113.274 93.6006 105.68 116.63 83.4576C133.147 67.5178 141.076 61.4179 152.891 55.56C164.802 49.655 175.207 47.0553 189.616 46.3857C203.601 45.736 214.248 47.1193 226.161 51.1342C241.634 56.3475 250.93 62.7662 271.877 82.698C289.641 99.6002 297.561 105.832 307.287 110.56C317.153 115.355 324.573 117.103 337.888 117.768C355.81 118.663 370.653 114.992 384.14 106.331L389.981 102.58L389.989 93.0056L389.998 83.4316L384.234 86.2541C358.65 98.7817 325.857 98.8686 300.267 86.477C290.319 81.6595 279.845 73.5227 262.985 57.5139C254.932 49.8669 245.815 41.7021 242.725 39.3703C226.632 27.2246 206.677 21.9802 185.107 24.2251ZM180.999 62.1485C169.698 63.9126 157.506 68.999 147.88 75.9654C145.124 77.9594 137.21 84.9888 130.294 91.5854C108.548 112.326 101.505 117.913 89.5262 123.927C78.2443 129.59 67.187 132.232 52.349 132.809C33.1759 133.555 19.5591 130.919 5.26347 123.696L0 121.036L0.00200511 130.798L0.00401027 140.56L4.26291 143.202C18.9956 152.34 29.6469 155.316 47.6219 155.316C63.1346 155.316 72.0785 153.292 84.0913 147.061C93.3861 142.239 100.7 136.367 117.975 119.856C133.163 105.338 140.599 99.4763 150.561 94.1631C174.39 81.4556 206.593 80.1223 232.092 90.7868C245.131 96.241 254.734 103.608 278.714 126.555C301.759 148.608 317.163 155.531 342.878 155.396C359.806 155.306 371.159 152.099 384.361 143.681L389.998 140.085V130.494C389.998 125.219 389.66 121.077 389.246 121.289C371.332 130.471 362.537 132.564 341.875 132.564C327.834 132.564 324.087 132.224 317.093 130.316C298.519 125.25 287.316 118.071 265.184 97.0556C256.369 88.6859 246.572 79.8544 243.413 77.4307C235.415 71.2958 223.646 65.5088 215.183 63.5518C206.606 61.5678 189.273 60.8562 180.999 62.1485ZM174.626 101.026C158.652 104.936 146.515 112.972 125.321 133.667C110.24 148.392 101.154 155.391 89.7297 161.081C74.5047 168.663 66.9333 170.325 47.6219 170.325C29.4033 170.325 21.2594 168.717 8.16691 162.533C4.11253 160.618 0.615576 159.051 0.397016 159.051C0.178457 159.051 0 163.292 0 168.478C0 177.743 0.0501283 177.94 2.91246 179.973C8.97498 184.276 22.7853 190.083 30.4159 191.536C47.3051 194.753 66.5183 192.809 79.9767 186.522C91.4561 181.159 96.9402 177.03 113.94 160.951C131.638 144.21 142.604 135.489 151.768 130.866C178.092 117.586 212.567 117.916 238.611 131.698C249.909 137.676 255.246 141.882 272.847 158.682C290.018 175.071 297.162 180.662 307.113 185.505C317.269 190.448 324.551 192.133 338.432 192.75C356.965 193.575 369.027 190.596 384.088 181.475L389.998 177.896V168.044V158.192L385.737 160.561C378.196 164.753 363.487 169.041 352.425 170.274C338.725 171.8 324.415 170.311 311.525 166.018C294.759 160.434 284.796 153.601 263.295 132.941C241.229 111.738 231.38 105.244 214.936 101.051C204.722 98.4468 185.208 98.4348 174.626 101.026Z" fill="#DF3E3E"/>
<path fill-rule="evenodd" clip-rule="evenodd" d="M185.107 136.055C175.217 137.085 167.879 139.193 159.468 143.422C149.632 148.366 142.37 154.103 125.33 170.392C103.609 191.154 93.5685 197.9 76.3184 203.322C53.4478 210.511 25.6246 208.401 5.00682 197.916C2.84829 196.818 0.839148 195.92 0.541386 195.92C0.243624 195.92 0 200.186 0 205.402V214.885L4.2559 217.563C10.3615 221.405 20.1726 225.842 26.2993 227.531C35.1199 229.964 53.2373 230.409 63.663 228.45C81.4716 225.105 93.6006 217.51 116.63 195.288C133.147 179.348 141.076 173.248 152.891 167.39C164.802 161.485 175.207 158.886 189.616 158.216C203.601 157.566 214.248 158.95 226.161 162.965C241.634 168.178 250.93 174.597 271.877 194.528C289.641 211.431 297.561 217.662 307.287 222.39C317.153 227.186 324.573 228.934 337.888 229.598C355.81 230.494 370.653 226.823 384.14 218.161L389.981 214.41L389.989 204.836L389.998 195.262L384.234 198.085C358.65 210.612 325.857 210.699 300.267 198.307C290.319 193.49 279.845 185.353 262.985 169.344C254.932 161.697 245.815 153.532 242.725 151.201C226.632 139.055 206.677 133.811 185.107 136.055ZM180.999 173.979C169.698 175.743 157.506 180.829 147.88 187.796C145.124 189.79 137.21 196.819 130.294 203.416C108.548 224.156 101.505 229.743 89.5262 235.757C78.2443 241.42 67.187 244.063 52.349 244.64C33.1759 245.385 19.5591 242.749 5.26347 235.526L0 232.867L0.00200511 242.629L0.00401027 252.391L4.26291 255.032C18.9956 264.17 29.6469 267.146 47.6219 267.146C63.1346 267.146 72.0785 265.122 84.0913 258.891C93.3861 254.07 100.7 248.198 117.975 231.686C133.163 217.169 140.599 211.307 150.561 205.993C174.39 193.286 206.593 191.953 232.092 202.617C245.131 208.071 254.734 215.439 278.714 238.386C301.759 260.438 317.163 267.362 342.878 267.226C359.806 267.136 371.159 263.93 384.361 255.511L389.998 251.916V242.325C389.998 237.049 389.66 232.908 389.246 233.119C371.332 242.302 362.537 244.395 341.875 244.395C327.834 244.395 324.087 244.055 317.093 242.147C298.519 237.08 287.316 229.901 265.184 208.886C256.369 200.516 246.572 191.685 243.413 189.261C235.415 183.126 223.646 177.339 215.183 175.382C206.606 173.398 189.273 172.687 180.999 173.979ZM174.626 212.856C158.652 216.767 146.515 224.803 125.321 245.497C110.24 260.223 101.154 267.222 89.7297 272.911C74.5047 280.493 66.9333 282.155 47.6219 282.155C29.4033 282.155 21.2594 280.547 8.16691 274.363C4.11253 272.448 0.615576 270.881 0.397016 270.881C0.178457 270.881 0 275.123 0 280.308C0 289.573 0.0501283 289.77 2.91246 291.803C8.97498 296.106 22.7853 301.913 30.4159 303.366C47.3051 306.584 66.5183 304.64 79.9767 298.353C91.4561 292.99 96.9402 288.861 113.94 272.781C131.638 256.041 142.604 247.319 151.768 242.697C178.092 229.416 212.567 229.746 238.611 243.528C249.909 249.506 255.246 253.713 272.847 270.512C290.018 286.902 297.162 292.493 307.113 297.335C317.269 302.279 324.551 303.963 338.432 304.581C356.965 305.405 369.027 302.427 384.088 293.305L389.998 289.726V279.874V270.022L385.737 272.391C378.196 276.583 363.487 280.872 352.425 282.104C338.725 283.63 324.415 282.141 311.525 277.848C294.759 272.264 284.796 265.432 263.295 244.771C241.229 223.568 231.38 217.075 214.936 212.882C204.722 210.277 185.208 210.265 174.626 212.856Z" fill="#DF3E3E"/>
<path fill-rule="evenodd" clip-rule="evenodd" d="M185.108 246.611C175.218 247.64 167.88 249.748 159.47 253.977C149.634 258.921 142.372 264.658 125.331 280.947C103.611 301.709 93.5702 308.455 76.32 313.877C53.4494 321.066 25.6262 318.956 5.00844 308.471C2.84991 307.373 0.84077 306.475 0.543007 306.475C0.245245 306.475 0.00162158 310.741 0.00162158 315.957V325.44L4.25752 328.118C10.3631 331.961 20.1743 336.397 26.3009 338.086C35.1215 340.519 53.2389 340.964 63.6646 339.005C81.4732 335.66 93.6022 328.066 116.631 305.843C133.148 289.903 141.078 283.803 152.893 277.945C164.804 272.04 175.208 269.441 189.618 268.771C203.603 268.121 214.25 269.505 226.163 273.52C241.635 278.733 250.932 285.152 271.879 305.083C289.643 321.986 297.562 328.217 307.288 332.945C317.155 337.741 324.575 339.489 337.89 340.153C355.811 341.049 370.654 337.378 384.142 328.716L389.983 324.965L389.991 315.391L390 305.817L384.235 308.64C358.652 321.167 325.859 321.254 300.268 308.862C290.321 304.045 279.847 295.908 262.987 279.899C254.933 272.252 245.817 264.087 242.727 261.756C226.634 249.61 206.679 244.366 185.108 246.611ZM181.001 284.534C169.7 286.298 157.508 291.384 147.881 298.351C145.125 300.345 137.212 307.374 130.295 313.971C108.55 334.711 101.506 340.298 89.5278 346.312C78.2459 351.975 67.1886 354.618 52.3506 355.195C33.1776 355.94 19.5607 353.305 5.2651 346.081L0.00162158 343.422L0.00362657 353.184L0.00563204 362.946L4.26453 365.587C18.9972 374.725 29.6485 377.701 47.6235 377.701C63.1362 377.701 72.0801 375.677 84.0929 369.446C93.3877 364.625 100.701 358.753 117.977 342.241C133.165 327.724 140.601 321.862 150.563 316.548C174.392 303.841 206.594 302.508 232.094 313.172C245.132 318.626 254.736 325.994 278.715 348.941C301.76 370.993 317.165 377.917 342.879 377.781C359.808 377.691 371.161 374.485 384.363 366.066L390 362.471V352.88C390 347.604 389.661 343.463 389.248 343.674C371.333 352.857 362.539 354.95 341.877 354.95C327.836 354.95 324.088 354.61 317.094 352.702C298.521 347.635 287.317 340.456 265.185 319.441C256.371 311.071 246.574 302.24 243.415 299.816C235.416 293.681 223.647 287.894 215.184 285.937C206.608 283.953 189.274 283.242 181.001 284.534ZM174.628 323.411C158.654 327.322 146.517 335.358 125.322 356.052C110.242 370.777 101.156 377.777 89.7313 383.466C74.5064 391.048 66.935 392.71 47.6235 392.71C29.4049 392.71 21.261 391.102 8.16853 384.918C4.11415 383.003 0.617197 381.436 0.398638 381.436C0.180078 381.436 0.00162158 385.678 0.00162158 390.863C0.00162158 400.128 0.0517496 400.325 2.91408 402.358C8.9766 406.661 22.7869 412.468 30.4175 413.921C47.3067 417.139 66.5199 415.195 79.9784 408.908C91.4578 403.545 96.9418 399.416 113.941 383.336C131.64 366.596 142.606 357.874 151.769 353.252C178.094 339.971 212.569 340.301 238.612 354.083C249.91 360.061 255.248 364.268 272.849 381.067C290.02 397.457 297.163 403.048 307.115 407.89C317.271 412.834 324.552 414.518 338.434 415.136C356.966 415.96 369.028 412.982 384.09 403.86L390 400.281V390.429V380.577L385.739 382.946C378.198 387.138 363.488 391.427 352.427 392.659C338.727 394.185 324.417 392.696 311.526 388.403C294.76 382.819 284.798 375.987 263.297 355.326C241.23 334.123 231.382 327.63 214.938 323.437C204.724 320.832 185.21 320.82 174.628 323.411Z" fill="#DF3E3E"/>
<path fill-rule="evenodd" clip-rule="evenodd" d="M185.107 356.329C175.217 357.358 167.879 359.466 159.468 363.695C149.632 368.64 142.37 374.377 125.33 390.665C103.609 411.428 93.5685 418.173 76.3184 423.595C53.4478 430.785 25.6246 428.675 5.00682 418.189C2.84829 417.092 0.839148 416.193 0.541386 416.193C0.243624 416.193 0 420.46 0 425.675V435.158L4.2559 437.837C10.3615 441.679 20.1726 446.116 26.2993 447.805C35.1199 450.237 53.2373 450.682 63.663 448.723C81.4716 445.378 93.6006 437.784 116.63 415.561C133.147 399.622 141.076 393.522 152.891 387.664C164.802 381.759 175.207 379.159 189.616 378.49C203.601 377.84 214.248 379.223 226.161 383.238C241.634 388.451 250.93 394.87 271.877 414.802C289.641 431.704 297.561 437.936 307.287 442.663C317.153 447.459 324.573 449.207 337.888 449.872C355.81 450.767 370.653 447.096 384.14 438.435L389.981 434.684L389.989 425.109L389.998 415.535L384.234 418.358C358.65 430.885 325.857 430.972 300.267 418.581C290.319 413.763 279.845 405.627 262.985 389.618C254.932 381.971 245.815 373.806 242.725 371.474C226.632 359.328 206.677 354.084 185.107 356.329ZM180.999 394.252C169.698 396.016 157.506 401.103 147.88 408.069C145.124 410.063 137.21 417.093 130.294 423.689C108.548 444.43 101.505 450.017 89.5262 456.031C78.2443 461.694 67.187 464.336 52.349 464.913C33.1759 465.659 19.5591 463.023 5.26347 455.8L0 453.14L0.00200513 462.902L0.00401027 472.664L4.26291 475.306C18.9956 484.444 29.6469 487.419 47.6219 487.419C63.1346 487.419 72.0785 485.395 84.0913 479.165C93.3861 474.343 100.7 468.471 117.975 451.96C133.163 437.442 140.599 431.58 150.561 426.267C174.39 413.559 206.593 412.226 232.092 422.891C245.131 428.345 254.734 435.712 278.714 458.659C301.759 480.712 317.163 487.635 342.878 487.499C359.806 487.409 371.159 484.203 384.361 475.784L389.998 472.189V462.598C389.998 457.323 389.66 453.181 389.246 453.393C371.332 462.575 362.537 464.668 341.875 464.668C327.834 464.668 324.087 464.328 317.093 462.42C298.519 457.354 287.316 450.175 265.184 429.159C256.369 420.79 246.572 411.958 243.413 409.535C235.415 403.4 223.646 397.613 215.183 395.656C206.606 393.672 189.273 392.96 180.999 394.252ZM174.626 433.129C158.652 437.04 146.515 445.076 125.321 465.771C110.24 480.496 101.154 487.495 89.7297 493.184C74.5047 500.766 66.9333 502.429 47.6219 502.429C29.4033 502.429 21.2594 500.82 8.16691 494.637C4.11253 492.722 0.615576 491.154 0.397016 491.154C0.178457 491.154 0 495.396 0 500.582C0 509.847 0.0501283 510.044 2.91246 512.077C8.97498 516.379 22.7853 522.186 30.4159 523.64C47.3051 526.857 66.5183 524.913 79.9767 518.626C91.4561 513.263 96.9402 509.134 113.94 493.054C131.638 476.314 142.604 467.593 151.768 462.97C178.092 449.69 212.567 450.02 238.611 463.802C249.909 469.779 255.246 473.986 272.847 490.786C290.018 507.175 297.162 512.766 307.113 517.609C317.269 522.552 324.551 524.236 338.432 524.854C356.965 525.679 369.027 522.7 384.088 513.579L389.998 510V500.148V490.296L385.737 492.665C378.196 496.857 363.487 501.145 352.425 502.378C338.725 503.904 324.415 502.415 311.525 498.122C294.759 492.538 284.796 485.705 263.295 465.045C241.229 443.842 231.38 437.348 214.936 433.155C204.722 430.551 185.208 430.539 174.626 433.129Z" fill="#DF3E3E"/>
<path fill-rule="evenodd" clip-rule="evenodd" d="M185.107 468.159C175.217 469.189 167.879 471.297 159.468 475.526C149.632 480.47 142.37 486.207 125.33 502.496C103.609 523.258 93.5685 530.003 76.3184 535.426C53.4478 542.615 25.6246 540.505 5.00682 530.019C2.84829 528.922 0.839148 528.023 0.541386 528.023C0.243624 528.023 0 532.29 0 537.506V546.989L4.2559 549.667C10.3615 553.509 20.1726 557.946 26.2993 559.635C35.1199 562.068 53.2373 562.513 63.663 560.554C81.4716 557.208 93.6006 549.614 116.63 527.392C133.147 511.452 141.076 505.352 152.891 499.494C164.802 493.589 175.207 490.99 189.616 490.32C203.601 489.67 214.248 491.054 226.161 495.068C241.634 500.282 250.93 506.7 271.877 526.632C289.641 543.534 297.561 549.766 307.287 554.494C317.153 559.289 324.573 561.037 337.888 561.702C355.81 562.598 370.653 558.927 384.14 550.265L389.981 546.514L389.989 536.94L389.998 527.366L384.234 530.188C358.65 542.716 325.857 542.803 300.267 530.411C290.319 525.594 279.845 517.457 262.985 501.448C254.932 493.801 245.815 485.636 242.725 483.305C226.632 471.159 206.677 465.914 185.107 468.159ZM180.999 506.083C169.698 507.847 157.506 512.933 147.88 519.9C145.124 521.894 137.21 528.923 130.294 535.52C108.548 556.26 101.505 561.847 89.5262 567.861C78.2443 573.524 67.187 576.167 52.349 576.743C33.1759 577.489 19.5591 574.853 5.26347 567.63L0 564.97L0.00200513 574.732L0.00401027 584.494L4.26291 587.136C18.9956 596.274 29.6469 599.25 47.6219 599.25C63.1346 599.25 72.0785 597.226 84.0913 590.995C93.3861 586.174 100.7 580.302 117.975 563.79C133.163 549.273 140.599 543.411 150.561 538.097C174.39 525.39 206.593 524.057 232.092 534.721C245.131 540.175 254.734 547.542 278.714 570.49C301.759 592.542 317.163 599.466 342.878 599.33C359.806 599.24 371.159 596.033 384.361 587.615L389.998 584.02V574.429C389.998 569.153 389.66 565.011 389.246 565.223C371.332 574.406 362.537 576.499 341.875 576.499C327.834 576.499 324.087 576.159 317.093 574.251C298.519 569.184 287.316 562.005 265.184 540.99C256.369 532.62 246.572 523.789 243.413 521.365C235.415 515.23 223.646 509.443 215.183 507.486C206.606 505.502 189.273 504.79 180.999 506.083ZM174.626 544.96C158.652 548.871 146.515 556.907 125.321 577.601C110.24 592.326 101.154 599.326 89.7297 605.015C74.5047 612.597 66.9333 614.259 47.6219 614.259C29.4033 614.259 21.2594 612.651 8.16691 606.467C4.11253 604.552 0.615576 602.985 0.397016 602.985C0.178457 602.985 0 607.227 0 612.412C0 621.677 0.0501283 621.874 2.91246 623.907C8.97498 628.21 22.7853 634.017 30.4159 635.47C47.3051 638.688 66.5183 636.743 79.9767 630.457C91.4561 625.093 96.9402 620.965 113.94 604.885C131.638 588.144 142.604 579.423 151.768 574.8C178.092 561.52 212.567 561.85 238.611 575.632C249.909 581.61 255.246 585.817 272.847 602.616C290.018 619.006 297.162 624.597 307.113 629.439C317.269 634.383 324.551 636.067 338.432 636.685C356.965 637.509 369.027 634.531 384.088 625.409L389.998 621.83V611.978V602.126L385.737 604.495C378.196 608.687 363.487 612.976 352.425 614.208C338.725 615.734 324.415 614.245 311.525 609.952C294.759 604.368 284.796 597.536 263.295 576.875C241.229 555.672 231.38 549.179 214.936 544.986C204.722 542.381 185.208 542.369 174.626 544.96Z" fill="#DF3E3E"/>
</svg>
