<svg xmlns="http://www.w3.org/2000/svg" width="25" height="26" viewBox="0 0 25 26" fill="none">
<g clip-path="url(#clip0_7_51)">
<path fill-rule="evenodd" clip-rule="evenodd" d="M12.5 0.5C19.4037 0.5 25 6.23741 25 13.3162C25 18.9774 21.4225 23.7799 16.4587 25.4762C15.825 25.6024 15.6 25.2022 15.6 24.861C15.6 24.4385 15.615 23.0585 15.615 21.3435C15.615 20.1485 15.215 19.3686 14.7663 18.9711C17.55 18.6536 20.475 17.5697 20.475 12.6472C20.475 11.2472 19.99 10.1048 19.1875 9.20728C19.3175 8.88353 19.7462 7.57994 19.065 5.81494C19.065 5.81494 18.0175 5.47153 15.6312 7.12903C14.6325 6.84528 13.5625 6.70251 12.5 6.69751C11.4375 6.70251 10.3688 6.84528 9.37125 7.12903C6.9825 5.47153 5.9325 5.81494 5.9325 5.81494C5.25375 7.57994 5.6825 8.88353 5.81125 9.20728C5.0125 10.1048 4.52375 11.2472 4.52375 12.6472C4.52375 17.5572 7.4425 18.6577 10.2188 18.9814C9.86125 19.3014 9.5375 19.866 9.425 20.6947C8.7125 21.0222 6.9025 21.589 5.7875 19.6302C5.7875 19.6302 5.12625 18.3988 3.87125 18.3088C3.87125 18.3088 2.6525 18.2926 3.78625 19.0876C3.78625 19.0876 4.605 19.4814 5.17375 20.9626C5.17375 20.9626 5.9075 23.2501 9.385 22.4751C9.39125 23.5463 9.4025 24.556 9.4025 24.861C9.4025 25.1997 9.1725 25.5962 8.54875 25.4774C3.58125 23.7837 0 18.9787 0 13.3162C0 6.23741 5.5975 0.5 12.5 0.5Z" fill="#F8B976"/>
</g>
<defs>
<clipPath id="clip0_7_51">
<rect width="25" height="25" fill="white" transform="translate(0 0.5)"/>
</clipPath>
</defs>
</svg>
