<svg xmlns="http://www.w3.org/2000/svg" width="32" height="32" viewBox="0 0 32 32" fill="none">
<path d="M26.3467 14.36L26.2267 13.8933H16.3067V18.1067H22.24C21.9089 19.3924 21.1563 20.5299 20.1023 21.3372C19.0484 22.1445 17.7541 22.5751 16.4267 22.56C14.6944 22.5457 13.0301 21.8847 11.76 20.7067C11.1357 20.0913 10.6388 19.3588 10.2979 18.5512C9.95703 17.7436 9.77876 16.8767 9.77333 16C9.79348 14.2393 10.4906 12.5539 11.72 11.2934C12.9721 10.1072 14.6352 9.45242 16.36 9.46668C17.8372 9.47806 19.2595 10.028 20.36 11.0134L23.2933 8.00002C21.36 6.27517 18.8576 5.32546 16.2667 5.33335C14.8413 5.32489 13.4284 5.59723 12.1084 6.13486C10.7883 6.67247 9.58712 7.46483 8.57333 8.46668C6.64492 10.4697 5.5577 13.1358 5.53536 15.9161C5.51304 18.6965 6.55734 21.3796 8.45334 23.4133C9.50379 24.4599 10.7523 25.2867 12.1259 25.8452C13.4995 26.4039 14.9705 26.6831 16.4533 26.6667C17.7979 26.6767 19.1305 26.4136 20.3705 25.8933C21.6104 25.3731 22.7317 24.6065 23.6667 23.64C25.5012 21.6228 26.4936 18.9796 26.44 16.2533C26.4544 15.6208 26.4232 14.9881 26.3467 14.36Z" fill="#F8B976"/>
</svg>
