<?xml version="1.0" encoding="utf-8"?>
<!-- Generator: Adobe Illustrator 27.6.1, SVG Export Plug-In . SVG Version: 6.00 Build 0)  -->
<svg version="1.1" id="Camada_1" xmlns="http://www.w3.org/2000/svg" xmlns:xlink="http://www.w3.org/1999/xlink" x="0px" y="0px"
	 viewBox="0 0 390 393.57" style="enable-background:new 0 0 390 393.57;" xml:space="preserve">
<style type="text/css">
	.st0{fill:#FFFFFF;}
	.st1{fill:#DC2626;}
</style>
<g>
	<g>
		<path class="st0" d="M130.14,188.92h-28.89v32.12H83.3l-0.12-83.18h18.08v33.71l28.83-0.18v-33.28l17.4-0.12v33.47h5.13
			l0.24,17.47h-5.37v12.21c0,13.27-7.53,19.91-22.6,19.91h-0.12v-18.5h0.18c3.42,0,5.13-2.02,5.13-6.05L130.14,188.92z"/>
		<path class="st0" d="M204.22,188.86l-25.71,0.06l-6.47,32.25l-17.1-3.42l12.76-62.78l-9.65-0.06l-0.18-16.92h66.87l-0.18,16.92
			h-9.34l12.7,62.66l-17.1,3.42L204.22,188.86z M200.92,172.68l-3.67-17.77h-11.91l-3.6,17.83L200.92,172.68z"/>
		<path class="st0" d="M239.83,137.99h17.4l-0.12,62.72c-0.08,13.56-7.74,20.34-22.96,20.34h-0.12v-18.5h0.18
			c3.46,0,5.29-2.06,5.5-6.17L239.83,137.99z"/>
	</g>
	<g>
		<path class="st1" d="M85.27,283.6c-0.56,0-1.15-0.04-1.77-0.11l-0.03-10.16c1.86,0,2.84-1.05,2.97-3.15v-5.5h-2.97v-10.35
			l2.97,0.07v-9.77l-2.97-0.04v-10.24h28.36c6.94,0.27,11.24,1.42,12.88,3.47l-0.07,36.03c-0.24,2.82-1.12,5.01-2.64,6.57
			c-1.52,1.55-3.36,2.6-5.53,3.13c-1.4,0.34-2.88,0.51-4.45,0.51c-7.91,0-14.52-1.02-19.82-3.07
			C90.49,282.73,88.19,283.6,85.27,283.6z M96.59,271.56c7.81,1.86,12.67,2.79,14.58,2.79c0.67,0,1.16-0.11,1.45-0.33
			c1.01-0.7,1.52-2.5,1.52-5.39c0-0.72-0.01-2.04-0.04-3.94H96.74v5.82C96.69,270.87,96.64,271.22,96.59,271.56z M96.74,244.64v9.77
			h17.44v-9.77H96.74z"/>
		<path class="st1" d="M136.71,283.53c-3.71-0.24-5.7-2.48-5.97-6.73l-0.04-33.13c-0.02-0.36-0.03-0.71-0.03-1.05
			c0-4.1,1.6-6.87,4.81-8.32h29.16c3.21,1.45,4.81,4.22,4.81,8.32c0,0.34-0.01,0.69-0.03,1.05l-0.04,33.13
			c-0.27,4.25-2.26,6.49-5.97,6.73H136.71z M158.7,272.86v-27.89h-17.29v27.89H158.7z"/>
		<path class="st1" d="M213.47,244.39h-27.78l0.04,9.77l17,0.11c7.16,0.24,10.82,3.67,10.96,10.27l-0.22,8.79
			c0,6.83-3.53,10.25-10.6,10.27l-27.42-0.04v-10.35l27.38,0.11v-8.79h-17.07c-6.9,0-10.33-3.3-10.31-9.91l-0.03-10.24
			c0-6.68,3.6-10.02,10.81-10.02l27.27,0.04L213.47,244.39z"/>
		<path class="st1" d="M229.17,234.37c-0.05,2.34-0.07,4.57-0.07,6.69c0,16.59,1.59,26.22,4.77,28.9c2.65,1.88,5.88,2.82,9.69,2.82
			c0.92,0,1.89-0.02,2.93-0.07l-0.04-38.42l10.45,0.07l0.04,49.19l-15.16,0.14c-11.38-0.1-18.19-4.92-20.44-14.47
			c-1.69-4.65-2.53-14.34-2.53-29.05c0-1.86,0.01-3.8,0.03-5.82H229.17z"/>
	</g>
</g>
<g>
	<path d="M13.26,46.01v301.56c0,18.96,81.37,34.33,181.74,34.33s181.74-15.37,181.74-34.33V46.01H13.26z"/>
	<g>
		<ellipse class="st0" cx="195" cy="46.01" rx="180.24" ry="32.83"/>
		<path d="M195,14.68c48.36,0,93.81,3.55,127.95,10c16.46,3.11,29.34,6.71,38.28,10.7c7.95,3.55,12.51,7.42,12.51,10.62
			s-4.56,7.07-12.51,10.62c-8.94,3.99-21.82,7.59-38.28,10.7c-34.15,6.45-79.59,10-127.95,10s-93.81-3.55-127.95-10
			c-16.46-3.11-29.34-6.71-38.28-10.7c-7.95-3.55-12.51-7.42-12.51-10.62s4.56-7.07,12.51-10.62c8.94-3.99,21.82-7.59,38.28-10.7
			C101.19,18.23,146.64,14.68,195,14.68 M195,11.68c-100.37,0-181.74,15.37-181.74,34.33S94.63,80.34,195,80.34
			s181.74-15.37,181.74-34.33S295.37,11.68,195,11.68L195,11.68z"/>
	</g>
	<ellipse class="st1" cx="195" cy="46.01" rx="118.92" ry="22.46"/>
</g>
</svg>
