<svg xmlns="http://www.w3.org/2000/svg" width="96" height="72" viewBox="0 0 96 72" fill="none">
<path d="M27.6321 13.725V0.25H36.2561V37H22.4381V28.327H27.6321V22.398H14.6471V26.416C14.6471 36.461 8.13008 40.528 5.53308 41.753L1.76008 34.011C2.34808 33.766 5.97408 32.1 5.97408 26.416V22.398H0.290085V13.725H5.97408V0.25H14.6471V13.725H27.6321Z" fill="#EDEDED"/>
<path d="M41.1553 8.923V0.25H73.9853V37H65.3613V24.113H55.2673C54.9243 31.61 48.7013 37.588 41.1553 37.588V28.915C43.9483 28.915 46.2513 26.808 46.5453 24.113H41.1553V16.322H46.5943V8.923H41.1553ZM65.3613 16.322V8.923H55.2673V16.322H65.3613Z" fill="#EDEDED"/>
<path d="M77.9053 8.923V0.25H95.6923V8.923H91.1353V28.327H95.6923V37H77.9053V28.327H82.4623V8.923H77.9053Z" fill="#EDEDED"/>
<path d="M22.9243 48.816C22.9243 51.12 22.5083 54.16 20.2363 56.464H23.9163V70H4.10835V51.664H0.428349V46H22.9243V48.816ZM17.0363 51.664H9.77235V55.824C14.7323 55.792 16.4923 54.48 17.0363 51.664ZM18.2523 64.336V61.488H9.77235V64.336H18.2523Z" fill="#EDEDED"/>
<path d="M41.4486 46C45.0966 46 48.0726 48.976 48.0726 52.592V70H34.8566C31.2406 70 28.2646 67.024 28.2646 63.408V51.664H24.5846V46H41.4486ZM42.4086 64.336V52.592C42.4086 52.08 41.9606 51.664 41.4486 51.664H33.9286V63.408C33.9286 63.92 34.3446 64.336 34.8566 64.336H42.4086Z" fill="#EDEDED"/>
<path d="M64.5276 46V42.896H70.1916V51.664H56.6236V55.184H70.1916V62.128C70.1916 66.48 66.6716 70 62.3516 70H50.9596V64.336H62.3516C63.5356 64.336 64.5276 63.344 64.5276 62.128V60.816H50.9596V46H64.5276Z" fill="#EDEDED"/>
<path d="M95.2281 46V63.248C95.2281 66.928 95.9641 68.976 95.9961 69.008L95.9641 68.976L90.7161 71.024C90.6201 70.832 90.0761 69.392 89.7881 66.864C87.4521 68.816 84.4441 70 81.1801 70H75.4521V51.664H71.7721V46H81.1161V64.336H81.8201C86.1081 64.336 89.5641 60.848 89.5641 56.592V46H95.2281Z" fill="#EDEDED"/>
</svg>
